<mxfile host="65bd71144e">
    <diagram id="Ow9shQyd8u1YGf_qzASR" name="Page-1">
        <mxGraphModel dx="2299" dy="2163" grid="1" gridSize="10" guides="1" tooltips="1" connect="1" arrows="1" fold="1" page="1" pageScale="1" pageWidth="827" pageHeight="1169" math="0" shadow="0">
            <root>
                <mxCell id="0"/>
                <mxCell id="1" parent="0"/>
                <mxCell id="32" value="" style="swimlane;startSize=0;shadow=0;glass=0;strokeWidth=3;gradientColor=none;" vertex="1" parent="1">
                    <mxGeometry x="20" y="-70" width="570" height="490" as="geometry"/>
                </mxCell>
                <mxCell id="10" value="cancel Order" style="ellipse;whiteSpace=wrap;html=1;fillColor=#e51400;fontColor=#ffffff;strokeColor=#B20000;" vertex="1" parent="32">
                    <mxGeometry y="10" width="40" height="40" as="geometry"/>
                </mxCell>
                <mxCell id="24" value="IsOrder Cancellable" style="ellipse;whiteSpace=wrap;html=1;fillColor=#e51400;fontColor=#ffffff;strokeColor=#B20000;" vertex="1" parent="32">
                    <mxGeometry y="95" width="70" height="65" as="geometry"/>
                </mxCell>
                <mxCell id="9" value="place Order" style="ellipse;whiteSpace=wrap;html=1;fillColor=#e51400;fontColor=#ffffff;strokeColor=#B20000;" vertex="1" parent="32">
                    <mxGeometry x="80" y="100" width="60" height="60" as="geometry"/>
                </mxCell>
                <mxCell id="23" value="view comments" style="ellipse;whiteSpace=wrap;html=1;" vertex="1" parent="32">
                    <mxGeometry x="505" y="5" width="60" height="60" as="geometry"/>
                </mxCell>
                <mxCell id="90" value="&amp;lt;&amp;lt;include&amp;gt;&amp;gt;" style="endArrow=open;endSize=12;dashed=1;html=1;fontColor=#FF3333;exitX=0.5;exitY=1;exitDx=0;exitDy=0;" edge="1" parent="32" source="10" target="24">
                    <mxGeometry width="160" relative="1" as="geometry">
                        <mxPoint x="-50" y="50" as="sourcePoint"/>
                        <mxPoint x="110" y="50" as="targetPoint"/>
                    </mxGeometry>
                </mxCell>
                <mxCell id="5" value="search product" style="ellipse;whiteSpace=wrap;html=1;" vertex="1" parent="32">
                    <mxGeometry x="443" y="10" width="50" height="40" as="geometry"/>
                </mxCell>
                <mxCell id="8" value="make Payment" style="ellipse;whiteSpace=wrap;html=1;fillColor=#e51400;fontColor=#ffffff;strokeColor=#B20000;" vertex="1" parent="32">
                    <mxGeometry x="82.5" y="200" width="45" height="50" as="geometry"/>
                </mxCell>
                <mxCell id="93" value="&amp;lt;&amp;lt;exclude&amp;gt;&amp;gt;" style="endArrow=open;endSize=12;dashed=1;html=1;fontColor=#FF3333;exitX=0.5;exitY=1;exitDx=0;exitDy=0;entryX=0.5;entryY=0;entryDx=0;entryDy=0;" edge="1" parent="32" source="9" target="8">
                    <mxGeometry x="0.0078" width="160" relative="1" as="geometry">
                        <mxPoint x="270" y="110" as="sourcePoint"/>
                        <mxPoint x="430" y="110" as="targetPoint"/>
                        <mxPoint as="offset"/>
                    </mxGeometry>
                </mxCell>
                <mxCell id="7" value="checkout cart" style="ellipse;whiteSpace=wrap;html=1;fillColor=#e51400;fontColor=#ffffff;strokeColor=#B20000;" vertex="1" parent="32">
                    <mxGeometry x="50" y="5" width="55" height="55" as="geometry"/>
                </mxCell>
                <mxCell id="115" value="&amp;lt;&amp;lt;include&amp;gt;&amp;gt;" style="endArrow=open;endSize=12;dashed=1;html=1;fontColor=#FF3333;exitX=0.5;exitY=1;exitDx=0;exitDy=0;entryX=0.5;entryY=0;entryDx=0;entryDy=0;" edge="1" parent="32" source="7" target="9">
                    <mxGeometry x="0.0078" width="160" relative="1" as="geometry">
                        <mxPoint x="370" y="340" as="sourcePoint"/>
                        <mxPoint x="450" y="375" as="targetPoint"/>
                        <mxPoint as="offset"/>
                    </mxGeometry>
                </mxCell>
                <mxCell id="130" value="update catalog" style="ellipse;whiteSpace=wrap;html=1;" vertex="1" parent="32">
                    <mxGeometry x="165" y="260" width="50" height="50" as="geometry"/>
                </mxCell>
                <mxCell id="131" value="&amp;lt;&amp;lt;include&amp;gt;&amp;gt;" style="endArrow=open;endSize=12;dashed=1;html=1;fontColor=#FF3333;startArrow=none;" edge="1" parent="32" source="97" target="130">
                    <mxGeometry x="0.0078" width="160" relative="1" as="geometry">
                        <mxPoint x="190" y="400" as="sourcePoint"/>
                        <mxPoint x="29.999999999999773" y="330" as="targetPoint"/>
                        <mxPoint as="offset"/>
                    </mxGeometry>
                </mxCell>
                <mxCell id="26" value="Notify order status" style="ellipse;whiteSpace=wrap;html=1;" vertex="1" parent="32">
                    <mxGeometry x="57.5" y="310" width="70" height="50" as="geometry"/>
                </mxCell>
                <mxCell id="120" value="&amp;lt;&amp;lt;exclude&amp;gt;&amp;gt;" style="endArrow=open;endSize=12;dashed=1;html=1;fontColor=#FF3333;exitX=0.5;exitY=1;exitDx=0;exitDy=0;" edge="1" parent="32" source="8">
                    <mxGeometry x="0.0078" width="160" relative="1" as="geometry">
                        <mxPoint x="180" y="260" as="sourcePoint"/>
                        <mxPoint x="105" y="320" as="targetPoint"/>
                        <mxPoint as="offset"/>
                    </mxGeometry>
                </mxCell>
                <mxCell id="135" style="edgeStyle=none;html=1;exitX=0;exitY=0;exitDx=0;exitDy=0;entryX=0.336;entryY=1.081;entryDx=0;entryDy=0;entryPerimeter=0;fontColor=#FF3333;" edge="1" parent="32" source="133" target="5">
                    <mxGeometry relative="1" as="geometry"/>
                </mxCell>
                <mxCell id="133" value="serach by pName" style="ellipse;whiteSpace=wrap;html=1;" vertex="1" parent="32">
                    <mxGeometry x="394" y="117.5" width="55" height="35" as="geometry"/>
                </mxCell>
                <mxCell id="136" style="edgeStyle=none;html=1;exitX=0.5;exitY=0;exitDx=0;exitDy=0;entryX=0.5;entryY=1;entryDx=0;entryDy=0;fontColor=#FF3333;" edge="1" parent="32" source="134" target="5">
                    <mxGeometry relative="1" as="geometry"/>
                </mxCell>
                <mxCell id="134" value="serach by pCategory" style="ellipse;whiteSpace=wrap;html=1;" vertex="1" parent="32">
                    <mxGeometry x="460" y="110" width="66" height="50" as="geometry"/>
                </mxCell>
                <mxCell id="64" value="refund payment" style="ellipse;whiteSpace=wrap;html=1;fillColor=#e3c800;fontColor=#000000;strokeColor=#B09500;" vertex="1" parent="32">
                    <mxGeometry x="5" y="170" width="60" height="60" as="geometry"/>
                </mxCell>
                <mxCell id="25" value="Notify shipment update" style="ellipse;whiteSpace=wrap;html=1;fillColor=#e3c800;fontColor=#000000;strokeColor=#B09500;" vertex="1" parent="32">
                    <mxGeometry y="245" width="70" height="50" as="geometry"/>
                </mxCell>
                <mxCell id="99" value="Add&amp;nbsp; Account" style="ellipse;whiteSpace=wrap;html=1;fillColor=#1ba1e2;fontColor=#ffffff;strokeColor=#006EAF;" vertex="1" parent="32">
                    <mxGeometry x="430" y="170" width="50" height="50" as="geometry"/>
                </mxCell>
                <mxCell id="17" value="add/ remove/ update inventory" style="ellipse;whiteSpace=wrap;html=1;fillColor=#647687;strokeColor=#314354;fontColor=#ffffff;" vertex="1" parent="32">
                    <mxGeometry x="261" y="415" width="65" height="70" as="geometry"/>
                </mxCell>
                <mxCell id="13" value="add/ remove/ update product Category" style="ellipse;whiteSpace=wrap;html=1;fillColor=#60a917;fontColor=#ffffff;strokeColor=#2D7600;" vertex="1" parent="32">
                    <mxGeometry x="65" y="410" width="70" height="70" as="geometry"/>
                </mxCell>
                <mxCell id="18" value="block/ unblock Account" style="ellipse;whiteSpace=wrap;html=1;fillColor=#008a00;fontColor=#ffffff;strokeColor=#005700;" vertex="1" parent="32">
                    <mxGeometry x="5" y="420" width="50" height="60" as="geometry"/>
                </mxCell>
                <mxCell id="27" value="Track Order" style="ellipse;whiteSpace=wrap;html=1;fillColor=#a20025;fontColor=#ffffff;strokeColor=#6F0000;" vertex="1" parent="32">
                    <mxGeometry x="110" y="12.5" width="38.75" height="40" as="geometry"/>
                </mxCell>
                <mxCell id="20" value="view Orders" style="ellipse;whiteSpace=wrap;html=1;fillColor=#a20025;fontColor=#ffffff;strokeColor=#6F0000;" vertex="1" parent="32">
                    <mxGeometry x="180" y="12.5" width="40" height="50" as="geometry"/>
                </mxCell>
                <mxCell id="19" value="view cart" style="ellipse;whiteSpace=wrap;html=1;fillColor=#a20025;fontColor=#ffffff;strokeColor=#6F0000;" vertex="1" parent="32">
                    <mxGeometry x="230" y="12.5" width="31" height="40" as="geometry"/>
                </mxCell>
                <mxCell id="97" value="update/ add/ remove product" style="ellipse;whiteSpace=wrap;html=1;" vertex="1" parent="32">
                    <mxGeometry x="160" y="350" width="60" height="80" as="geometry"/>
                </mxCell>
                <mxCell id="15" value="open E-store" style="ellipse;whiteSpace=wrap;html=1;fillColor=#647687;strokeColor=#314354;fontColor=#ffffff;" vertex="1" parent="32">
                    <mxGeometry x="215" y="422.5" width="40" height="55" as="geometry"/>
                </mxCell>
                <mxCell id="6" value="Add / Remove / Update item in Cart" style="ellipse;whiteSpace=wrap;html=1;fillColor=#a20025;fontColor=#ffffff;strokeColor=#6F0000;" vertex="1" parent="32">
                    <mxGeometry x="210.5" y="80" width="70" height="70" as="geometry"/>
                </mxCell>
                <mxCell id="11" value="update Order" style="ellipse;whiteSpace=wrap;html=1;fillColor=#a20025;fontColor=#ffffff;strokeColor=#6F0000;" vertex="1" parent="32">
                    <mxGeometry x="300" y="30" width="44" height="50" as="geometry"/>
                </mxCell>
                <mxCell id="22" value="add/ remove/ update reviews" style="ellipse;whiteSpace=wrap;html=1;fillColor=#a20025;fontColor=#ffffff;strokeColor=#6F0000;" vertex="1" parent="32">
                    <mxGeometry x="310" y="110" width="60" height="70" as="geometry"/>
                </mxCell>
                <mxCell id="12" value="add/ remove/ update delivery Address" style="ellipse;whiteSpace=wrap;html=1;fillColor=#a20025;fontColor=#ffffff;strokeColor=#6F0000;" vertex="1" parent="32">
                    <mxGeometry x="350" y="10" width="60" height="80" as="geometry"/>
                </mxCell>
                <mxCell id="153" value="common Functionality btw customer, merchant, admin:&lt;br&gt;&lt;font color=&quot;#a28fff&quot;&gt;login-logout + Add Account+ Remove Account&lt;/font&gt;" style="rounded=0;whiteSpace=wrap;html=1;shadow=0;glass=0;sketch=0;strokeWidth=3;fontColor=#FF3333;gradientColor=none;" vertex="1" parent="32">
                    <mxGeometry x="370" y="360" width="170" height="75" as="geometry"/>
                </mxCell>
                <mxCell id="77" style="edgeStyle=none;html=1;exitX=0.5;exitY=0.5;exitDx=0;exitDy=0;exitPerimeter=0;entryX=1;entryY=1;entryDx=0;entryDy=0;fontColor=#FF3333;" edge="1" parent="1" source="43" target="15">
                    <mxGeometry relative="1" as="geometry"/>
                </mxCell>
                <mxCell id="113" style="edgeStyle=none;html=1;exitX=0.5;exitY=0.5;exitDx=0;exitDy=0;exitPerimeter=0;entryX=0.5;entryY=1;entryDx=0;entryDy=0;fontColor=#FF3333;" edge="1" parent="1" source="43" target="97">
                    <mxGeometry relative="1" as="geometry"/>
                </mxCell>
                <mxCell id="43" value="merchant" style="shape=umlActor;verticalLabelPosition=bottom;verticalAlign=top;html=1;shadow=0;glass=0;sketch=0;strokeWidth=3;gradientColor=none;" vertex="1" parent="1">
                    <mxGeometry x="180" y="470" width="30" height="60" as="geometry"/>
                </mxCell>
                <mxCell id="75" style="edgeStyle=none;html=1;exitX=0.5;exitY=0.5;exitDx=0;exitDy=0;exitPerimeter=0;fontColor=#FF3333;fillColor=#1ba1e2;strokeColor=#006EAF;" edge="1" parent="1" source="44" target="23">
                    <mxGeometry relative="1" as="geometry"/>
                </mxCell>
                <mxCell id="76" style="edgeStyle=none;html=1;exitX=0.5;exitY=0.5;exitDx=0;exitDy=0;exitPerimeter=0;fontColor=#FF3333;fillColor=#1ba1e2;strokeColor=#006EAF;entryX=1;entryY=1;entryDx=0;entryDy=0;" edge="1" parent="1" source="44" target="5">
                    <mxGeometry relative="1" as="geometry">
                        <mxPoint x="460" y="140" as="targetPoint"/>
                    </mxGeometry>
                </mxCell>
                <mxCell id="100" style="edgeStyle=none;html=1;exitX=0.5;exitY=0.5;exitDx=0;exitDy=0;exitPerimeter=0;entryX=1;entryY=0.5;entryDx=0;entryDy=0;fontColor=#FF3333;fillColor=#1ba1e2;strokeColor=#006EAF;" edge="1" parent="1" source="44" target="99">
                    <mxGeometry relative="1" as="geometry"/>
                </mxCell>
                <mxCell id="44" value="guest" style="shape=umlActor;verticalLabelPosition=bottom;verticalAlign=top;html=1;shadow=0;glass=0;sketch=0;strokeWidth=3;gradientColor=none;" vertex="1" parent="1">
                    <mxGeometry x="620" y="70" width="30" height="60" as="geometry"/>
                </mxCell>
                <mxCell id="54" style="edgeStyle=none;html=1;fontColor=#FF3333;fillColor=#d80073;strokeColor=#A50040;" edge="1" parent="1" source="46" target="5">
                    <mxGeometry relative="1" as="geometry"/>
                </mxCell>
                <mxCell id="58" style="edgeStyle=none;html=1;exitX=0.5;exitY=0.5;exitDx=0;exitDy=0;exitPerimeter=0;fontColor=#FF3333;fillColor=#d80073;strokeColor=#A50040;" edge="1" parent="1" source="46" target="10">
                    <mxGeometry relative="1" as="geometry"/>
                </mxCell>
                <mxCell id="72" style="edgeStyle=none;html=1;exitX=0.5;exitY=0.5;exitDx=0;exitDy=0;exitPerimeter=0;fontColor=#FF3333;fillColor=#a20025;strokeColor=#6F0000;" edge="1" parent="1" source="46" target="22">
                    <mxGeometry relative="1" as="geometry"/>
                </mxCell>
                <mxCell id="74" style="edgeStyle=none;html=1;exitX=0.5;exitY=0.5;exitDx=0;exitDy=0;exitPerimeter=0;entryX=0;entryY=0.5;entryDx=0;entryDy=0;fontColor=#FF3333;fillColor=#a20025;strokeColor=#6F0000;" edge="1" parent="1" source="46" target="23">
                    <mxGeometry relative="1" as="geometry"/>
                </mxCell>
                <mxCell id="94" style="edgeStyle=none;html=1;exitX=0.5;exitY=0.5;exitDx=0;exitDy=0;exitPerimeter=0;fontColor=#FF3333;fillColor=#a20025;strokeColor=#6F0000;" edge="1" parent="1" source="46" target="27">
                    <mxGeometry relative="1" as="geometry"/>
                </mxCell>
                <mxCell id="95" style="edgeStyle=none;html=1;exitX=0.5;exitY=0.5;exitDx=0;exitDy=0;exitPerimeter=0;fontColor=#FF3333;fillColor=#a20025;strokeColor=#6F0000;" edge="1" parent="1" source="46" target="7">
                    <mxGeometry relative="1" as="geometry"/>
                </mxCell>
                <mxCell id="96" style="edgeStyle=none;html=1;exitX=0.5;exitY=0.5;exitDx=0;exitDy=0;exitPerimeter=0;fontColor=#FF3333;fillColor=#d80073;strokeColor=#A50040;" edge="1" parent="1" source="46" target="6">
                    <mxGeometry relative="1" as="geometry"/>
                </mxCell>
                <mxCell id="116" style="edgeStyle=none;html=1;exitX=0.5;exitY=0.5;exitDx=0;exitDy=0;exitPerimeter=0;entryX=0;entryY=0.5;entryDx=0;entryDy=0;fontColor=#FF3333;" edge="1" parent="1" source="46" target="20">
                    <mxGeometry relative="1" as="geometry"/>
                </mxCell>
                <mxCell id="117" style="edgeStyle=none;html=1;exitX=0.5;exitY=0.5;exitDx=0;exitDy=0;exitPerimeter=0;entryX=1;entryY=0.5;entryDx=0;entryDy=0;fontColor=#FF3333;fillColor=#a20025;strokeColor=#6F0000;" edge="1" parent="1" source="46" target="8">
                    <mxGeometry relative="1" as="geometry"/>
                </mxCell>
                <mxCell id="46" value="customer" style="shape=umlActor;verticalLabelPosition=bottom;verticalAlign=top;html=1;shadow=0;glass=0;sketch=0;strokeWidth=3;gradientColor=none;" vertex="1" parent="1">
                    <mxGeometry x="200" y="-200" width="27.5" height="50" as="geometry"/>
                </mxCell>
                <mxCell id="55" style="edgeStyle=none;html=1;fontColor=#FF3333;fillColor=#d80073;strokeColor=#A50040;exitX=0.714;exitY=0.89;exitDx=0;exitDy=0;exitPerimeter=0;" edge="1" parent="1" source="46" target="12">
                    <mxGeometry relative="1" as="geometry">
                        <mxPoint x="327.6846100530154" y="-160" as="sourcePoint"/>
                        <mxPoint x="329.8260880102757" y="130.00018177257152" as="targetPoint"/>
                    </mxGeometry>
                </mxCell>
                <mxCell id="59" style="edgeStyle=none;html=1;fontColor=#FF3333;fillColor=#d80073;strokeColor=#A50040;" edge="1" parent="1" source="46" target="19">
                    <mxGeometry relative="1" as="geometry">
                        <mxPoint x="436.9961475597506" y="-110" as="sourcePoint"/>
                        <mxPoint x="444.4576665089098" y="140.00145251605136" as="targetPoint"/>
                    </mxGeometry>
                </mxCell>
                <mxCell id="60" style="edgeStyle=none;html=1;fontColor=#FF3333;fillColor=#d80073;strokeColor=#A50040;exitX=0.5;exitY=0.5;exitDx=0;exitDy=0;exitPerimeter=0;" edge="1" parent="1" source="46" target="11">
                    <mxGeometry relative="1" as="geometry">
                        <mxPoint x="446.9961475597506" y="-100" as="sourcePoint"/>
                        <mxPoint x="454.4576665089098" y="150.00145251605136" as="targetPoint"/>
                    </mxGeometry>
                </mxCell>
                <mxCell id="65" style="edgeStyle=none;html=1;exitX=0.5;exitY=0.5;exitDx=0;exitDy=0;exitPerimeter=0;fontColor=#FF3333;entryX=1;entryY=1;entryDx=0;entryDy=0;" edge="1" parent="1" source="43" target="17">
                    <mxGeometry relative="1" as="geometry">
                        <mxPoint x="452.5" y="0.4399999999999977" as="sourcePoint"/>
                        <mxPoint x="372.5" y="300" as="targetPoint"/>
                    </mxGeometry>
                </mxCell>
                <mxCell id="80" style="edgeStyle=none;html=1;exitX=0.5;exitY=0.5;exitDx=0;exitDy=0;exitPerimeter=0;fontColor=#FF3333;fillColor=#e3c800;strokeColor=#B09500;" edge="1" parent="1" source="79" target="64">
                    <mxGeometry relative="1" as="geometry"/>
                </mxCell>
                <mxCell id="83" style="edgeStyle=none;html=1;exitX=0.5;exitY=0.5;exitDx=0;exitDy=0;exitPerimeter=0;entryX=0;entryY=1;entryDx=0;entryDy=0;fontColor=#FF3333;fillColor=#e3c800;strokeColor=#B09500;" edge="1" parent="1" source="79" target="25">
                    <mxGeometry relative="1" as="geometry"/>
                </mxCell>
                <mxCell id="79" value="System" style="shape=umlActor;verticalLabelPosition=bottom;verticalAlign=top;html=1;shadow=0;glass=0;sketch=0;strokeWidth=3;gradientColor=none;" vertex="1" parent="1">
                    <mxGeometry x="-110" y="240" width="30" height="60" as="geometry"/>
                </mxCell>
                <mxCell id="82" value="" style="edgeStyle=none;html=1;fontColor=#FF3333;fillColor=#d80073;strokeColor=#A50040;exitX=0.667;exitY=0.877;exitDx=0;exitDy=0;exitPerimeter=0;endArrow=none;" edge="1" parent="1" source="46" target="5">
                    <mxGeometry relative="1" as="geometry">
                        <mxPoint x="419.5925000000002" y="-86.14999999999986" as="sourcePoint"/>
                        <mxPoint x="558.954344845733" y="246.05187565902452" as="targetPoint"/>
                    </mxGeometry>
                </mxCell>
                <mxCell id="84" style="edgeStyle=none;html=1;exitX=0.5;exitY=0.5;exitDx=0;exitDy=0;exitPerimeter=0;fontColor=#FF3333;entryX=-0.01;entryY=0.73;entryDx=0;entryDy=0;fillColor=#e3c800;strokeColor=#B09500;startArrow=none;entryPerimeter=0;" edge="1" parent="1" source="79" target="26">
                    <mxGeometry relative="1" as="geometry">
                        <mxPoint x="180" y="260" as="targetPoint"/>
                    </mxGeometry>
                </mxCell>
                <mxCell id="39" value="admin" style="shape=umlActor;verticalLabelPosition=bottom;verticalAlign=top;html=1;shadow=0;glass=0;sketch=0;strokeWidth=3;gradientColor=none;" vertex="1" parent="1">
                    <mxGeometry x="70" y="460" width="30" height="60" as="geometry"/>
                </mxCell>
                <mxCell id="102" style="edgeStyle=none;html=1;exitX=0.5;exitY=0.5;exitDx=0;exitDy=0;exitPerimeter=0;fontColor=#FF3333;fillColor=#008a00;strokeColor=#005700;" edge="1" parent="1" source="39" target="97">
                    <mxGeometry relative="1" as="geometry"/>
                </mxCell>
                <mxCell id="67" style="edgeStyle=none;html=1;exitX=0.5;exitY=0.5;exitDx=0;exitDy=0;exitPerimeter=0;fontColor=#FF3333;fillColor=#008a00;strokeColor=#005700;" edge="1" parent="1" source="39" target="18">
                    <mxGeometry relative="1" as="geometry">
                        <mxPoint x="332.5" y="680" as="targetPoint"/>
                    </mxGeometry>
                </mxCell>
                <mxCell id="68" style="edgeStyle=none;html=1;exitX=0.5;exitY=0.5;exitDx=0;exitDy=0;exitPerimeter=0;entryX=0;entryY=1;entryDx=0;entryDy=0;fontColor=#FF3333;fillColor=#008a00;strokeColor=#005700;" edge="1" parent="1" source="39" target="13">
                    <mxGeometry relative="1" as="geometry"/>
                </mxCell>
            </root>
        </mxGraphModel>
    </diagram>
</mxfile>